<svg width="596" height="581" viewBox="0 0 596 581" fill="none" xmlns="http://www.w3.org/2000/svg">
<path d="M73.5125 292.902C92.0573 315.715 178.509 327.988 236.294 328.039C255.016 328.056 301.625 303.94 306.05 294.419C310.476 284.898 292.31 249.456 282.954 239.804C243.743 199.352 150.711 142.476 133.437 142.329C111.845 142.145 44.8323 257.622 73.5125 292.902Z" fill="url(#paint0_linear_59_48)"/>
<path d="M160.179 274.872C168.379 288.406 280.637 301.169 307.453 295.11C292.334 279.135 221.517 213.286 196.993 214.283C175.798 215.144 149.93 257.954 160.179 274.872Z" fill="url(#paint1_linear_59_48)"/>
<path d="M465.569 111.978C436.17 112.135 372.432 171.817 336.182 216.818C324.438 231.398 314.024 282.833 318.671 292.248C323.318 301.663 362.322 309.714 375.707 308.472C431.803 303.262 534.424 266.401 545.362 253.032C559.036 236.32 511.035 111.734 465.569 111.978Z" fill="url(#paint2_linear_59_48)"/>
<path d="M425.312 190.817C409.627 188.726 329.336 268.213 317.254 292.908C339.177 291.136 434.871 277.21 449.461 257.474C462.072 240.416 444.919 193.431 425.312 190.817Z" fill="url(#paint3_linear_59_48)"/>
<path d="M531.414 387.669C523.593 359.329 449.351 313.367 396.451 290.111C379.313 282.577 326.942 285.941 319.065 292.884C311.189 299.826 313.591 339.579 318.282 352.176C337.944 404.971 400.299 494.423 416.059 501.495C435.76 510.336 543.51 431.498 531.414 387.669Z" fill="url(#paint4_linear_59_48)"/>
<path d="M444.803 369.372C442.73 353.685 345.05 296.909 318.059 291.687C325.488 312.389 363.895 401.137 386.754 410.074C406.511 417.797 447.395 388.982 444.803 369.372Z" fill="url(#paint5_linear_59_48)"/>
<path d="M231.966 515.056C259.7 505.303 300.444 428.073 320.003 373.699C326.341 356.083 319.38 304.068 311.912 296.688C304.444 289.307 264.95 294.439 252.706 299.987C201.389 323.236 116.441 391.599 110.47 407.809C103.006 428.071 189.073 530.139 231.966 515.056Z" fill="url(#paint6_linear_59_48)"/>
<path d="M244.258 427.391C259.766 424.243 309.685 322.888 313.036 295.601C292.894 304.438 207 348.861 199.658 372.281C193.312 392.523 224.873 431.327 244.258 427.391Z" fill="url(#paint7_linear_59_48)"/>
<path d="M206.601 79.5968C196.112 108.001 230.592 191.059 260.864 242.299C270.672 258.9 316.498 287.556 327.259 286.483C338.019 285.409 359.898 250.715 363.544 237.359C378.823 181.384 380.42 69.0929 371.488 53.7068C360.322 34.474 222.821 35.6684 206.601 79.5968Z" fill="url(#paint8_linear_59_48)"/>
<path d="M268.051 146.947C260.358 161.315 307.943 267.501 327.382 288.088C333.607 266.308 354.813 168.997 341.063 147.785C329.179 129.452 277.667 128.987 268.051 146.947Z" fill="url(#paint9_linear_59_48)"/>
<path d="M334.143 271.027C326.026 264.328 297.223 265.391 293.304 272.466C291.435 275.841 288.858 298.74 301.297 312.141C309.721 321.215 331.071 312.625 336.125 315.604C337.842 307.154 343.535 278.779 334.143 271.027Z" fill="#A04F89"/>
<defs>
<linearGradient id="paint0_linear_59_48" x1="88.9641" y1="184.012" x2="261.614" y2="343.175" gradientUnits="userSpaceOnUse">
<stop stop-color="#FFAAAA"/>
<stop offset="1" stop-color="#A04F89"/>
</linearGradient>
<linearGradient id="paint1_linear_59_48" x1="156.497" y1="205.098" x2="282.959" y2="321.68" gradientUnits="userSpaceOnUse">
<stop stop-color="#D07D99"/>
<stop offset="1" stop-color="#A04F89"/>
</linearGradient>
<linearGradient id="paint2_linear_59_48" x1="540.746" y1="192.253" x2="308.52" y2="227.066" gradientUnits="userSpaceOnUse">
<stop stop-color="#FFAAAA"/>
<stop offset="1" stop-color="#A04F89"/>
</linearGradient>
<linearGradient id="paint3_linear_59_48" x1="481.995" y1="231.67" x2="311.896" y2="257.169" gradientUnits="userSpaceOnUse">
<stop stop-color="#D07D99"/>
<stop offset="1" stop-color="#A04F89"/>
</linearGradient>
<linearGradient id="paint4_linear_59_48" x1="473.529" y1="481.184" x2="379.342" y2="266.08" gradientUnits="userSpaceOnUse">
<stop stop-color="#FFAAAA"/>
<stop offset="1" stop-color="#A04F89"/>
</linearGradient>
<linearGradient id="paint5_linear_59_48" x1="420.152" y1="434.75" x2="351.162" y2="277.192" gradientUnits="userSpaceOnUse">
<stop stop-color="#D07D99"/>
<stop offset="1" stop-color="#A04F89"/>
</linearGradient>
<linearGradient id="paint6_linear_59_48" x1="134.688" y1="463.744" x2="342.8" y2="354.977" gradientUnits="userSpaceOnUse">
<stop stop-color="#FFAAAA"/>
<stop offset="1" stop-color="#A04F89"/>
</linearGradient>
<linearGradient id="paint7_linear_59_48" x1="177.339" y1="407.297" x2="329.775" y2="327.628" gradientUnits="userSpaceOnUse">
<stop stop-color="#D07D99"/>
<stop offset="1" stop-color="#A04F89"/>
</linearGradient>
<linearGradient id="paint8_linear_59_48" x1="311.213" y1="36.1612" x2="260.734" y2="272.68" gradientUnits="userSpaceOnUse">
<stop stop-color="#FFAAAA"/>
<stop offset="1" stop-color="#A04F89"/>
</linearGradient>
<linearGradient id="paint9_linear_59_48" x1="327.957" y1="107.076" x2="290.983" y2="280.32" gradientUnits="userSpaceOnUse">
<stop stop-color="#D07D99"/>
<stop offset="1" stop-color="#A04F89"/>
</linearGradient>
</defs>
</svg>
