<svg width="288" height="260" viewBox="0 0 288 260" fill="none" xmlns="http://www.w3.org/2000/svg">
<g opacity="0.76">
<path d="M263.432 132.323C253.514 144.179 206.636 151.686 175.246 152.564C165.076 152.849 139.591 141.292 137.122 136.524C134.653 131.755 144.278 113.492 149.294 108.454C170.317 87.3367 202.682 73.8201 212.064 73.4906C223.792 73.0787 278.769 113.987 263.432 132.323Z" fill="url(#paint0_linear_15_109)"/>
<path d="M216.229 124.447C211.867 131.44 150.974 139.576 136.365 136.895C144.468 128.561 182.486 94.0834 195.815 94.2278C207.335 94.3526 221.68 115.706 216.229 124.447Z" fill="url(#paint1_linear_15_109)"/>
<path d="M28.371 54.7688C42.7543 31.6527 100.223 75.2556 120.224 97.5688C126.704 104.798 132.713 130.759 130.253 135.608C127.794 140.457 106.661 145.12 99.3817 144.686C68.8734 142.869 38.7326 127.933 32.6987 121.307C25.1563 113.023 12.5088 80.2618 28.371 54.7688Z" fill="url(#paint2_linear_15_109)"/>
<path d="M71.628 85.6827C80.1345 84.3898 124.296 123.562 131.028 135.922C119.107 135.346 67.0282 129.687 58.9669 119.882C51.9997 111.407 60.9949 87.2988 71.628 85.6827Z" fill="url(#paint3_linear_15_109)"/>
<path d="M39.6105 181.913C43.6646 167.408 59.4099 148.258 87.9864 135.67C97.2448 131.592 125.717 132.528 130.043 135.936C134.37 139.345 133.338 159.564 130.875 166.029C120.557 193.124 101.64 209.246 93.1273 213.069C82.4864 217.848 33.3406 204.344 39.6105 181.913Z" fill="url(#paint4_linear_15_109)"/>
<path d="M62.2642 176.627C63.283 168.631 115.955 138.364 130.582 135.314C126.688 145.935 106.433 191.561 94.0769 196.435C83.3974 200.648 60.9908 186.621 62.2642 176.627Z" fill="url(#paint5_linear_15_109)"/>
<path d="M173.273 230.979C158.14 226.436 141.084 204.301 130.086 176.982C126.522 168.132 129.947 141.62 133.953 137.763C137.959 133.905 159.448 135.928 166.138 138.564C194.174 149.611 212.643 173.095 215.997 181.237C220.191 191.415 196.676 238.004 173.273 230.979Z" fill="url(#paint6_linear_15_109)"/>
<path d="M171.601 203.125C163.155 201.755 135.343 151.031 133.335 137.227C144.337 141.416 191.302 162.704 195.451 174.486C199.037 184.67 182.159 204.837 171.601 203.125Z" fill="url(#paint7_linear_15_109)"/>
<path d="M189.672 25.9865C195.564 40.2533 177.404 82.9324 161.311 109.395C156.097 117.968 131.399 133.193 125.547 132.807C119.694 132.421 107.571 115.128 105.499 108.401C96.815 80.2067 91.5096 44.0916 96.2563 36.1479C102.19 26.2183 180.559 3.92243 189.672 25.9865Z" fill="url(#paint8_linear_15_109)"/>
<path d="M156.753 61.088C161.03 68.2695 135.909 122.885 125.491 133.624C121.96 122.657 109.773 73.5635 117.097 62.591C123.427 53.1077 151.406 52.1112 156.753 61.088Z" fill="url(#paint9_linear_15_109)"/>
<path d="M121.701 125.061C126.064 121.54 141.718 121.655 143.895 125.189C144.934 126.875 146.491 138.464 139.826 145.451C135.312 150.182 123.655 146.136 120.93 147.723C119.939 143.458 116.652 129.135 121.701 125.061Z" fill="#C07EAD"/>
</g>
<defs>
<linearGradient id="paint0_linear_15_109" x1="254.291" y1="77.2649" x2="167.531" y2="166.4" gradientUnits="userSpaceOnUse">
<stop stop-color="#FEDCDC"/>
<stop offset="1" stop-color="#C07EAD"/>
</linearGradient>
<linearGradient id="paint1_linear_15_109" x1="217.75" y1="88.967" x2="154.201" y2="154.256" gradientUnits="userSpaceOnUse">
<stop stop-color="#D07D99"/>
<stop offset="1" stop-color="#C07EAD"/>
</linearGradient>
<linearGradient id="paint2_linear_15_109" x1="8.93125" y1="88.1142" x2="134.714" y2="106.509" gradientUnits="userSpaceOnUse">
<stop stop-color="#FEDCDC"/>
<stop offset="1" stop-color="#C07EAD"/>
</linearGradient>
<linearGradient id="paint3_linear_15_109" x1="41.1167" y1="107.261" x2="133.249" y2="120.735" gradientUnits="userSpaceOnUse">
<stop stop-color="#D07D99"/>
<stop offset="1" stop-color="#C07EAD"/>
</linearGradient>
<linearGradient id="paint4_linear_15_109" x1="47.4265" y1="233.819" x2="90.4213" y2="120.673" gradientUnits="userSpaceOnUse">
<stop stop-color="#FEDCDC"/>
<stop offset="1" stop-color="#C07EAD"/>
</linearGradient>
<linearGradient id="paint5_linear_15_109" x1="76.104" y1="209.457" x2="107.597" y2="126.58" gradientUnits="userSpaceOnUse">
<stop stop-color="#D07D99"/>
<stop offset="1" stop-color="#C07EAD"/>
</linearGradient>
<linearGradient id="paint6_linear_15_109" x1="231.371" y1="219.967" x2="121.333" y2="160.82" gradientUnits="userSpaceOnUse">
<stop stop-color="#FEDCDC"/>
<stop offset="1" stop-color="#C07EAD"/>
</linearGradient>
<linearGradient id="paint7_linear_15_109" x1="207.815" y1="191.936" x2="127.215" y2="148.612" gradientUnits="userSpaceOnUse">
<stop stop-color="#D07D99"/>
<stop offset="1" stop-color="#C07EAD"/>
</linearGradient>
<linearGradient id="paint8_linear_15_109" x1="132.546" y1="5.47658" x2="159.76" y2="125.234" gradientUnits="userSpaceOnUse">
<stop stop-color="#FEDCDC"/>
<stop offset="1" stop-color="#C07EAD"/>
</linearGradient>
<linearGradient id="paint9_linear_15_109" x1="123.937" y1="41.7287" x2="143.87" y2="129.448" gradientUnits="userSpaceOnUse">
<stop stop-color="#D07D99"/>
<stop offset="1" stop-color="#C07EAD"/>
</linearGradient>
</defs>
</svg>
