<svg width="49" height="41" viewBox="0 0 49 41" fill="none" xmlns="http://www.w3.org/2000/svg">
<rect x="1.5" y="1.5" width="45.6513" height="38" rx="5.5" fill="white" stroke="#C07EAD" stroke-width="3"/>
<path d="M29.9904 15.8705C32.1114 15.8705 34.1456 16.7066 35.6454 18.1948C37.1453 19.683 37.9879 21.7014 37.9879 23.806V33.0641H32.6562V23.806C32.6562 23.1045 32.3753 22.4317 31.8754 21.9356C31.3755 21.4396 30.6974 21.1609 29.9904 21.1609C29.2834 21.1609 28.6053 21.4396 28.1054 21.9356C27.6054 22.4317 27.3245 23.1045 27.3245 23.806V33.0641H21.9929V23.806C21.9929 21.7014 22.8355 19.683 24.3353 18.1948C25.8351 16.7066 27.8693 15.8705 29.9904 15.8705Z" stroke="#1E1E1E" stroke-width="3" stroke-linecap="round" stroke-linejoin="round"/>
<path d="M16.6612 17.1931H11.3296V33.0641H16.6612V17.1931Z" stroke="#1E1E1E" stroke-width="3" stroke-linecap="round" stroke-linejoin="round"/>
<path d="M13.9954 13.2254C15.4677 13.2254 16.6612 12.0411 16.6612 10.5802C16.6612 9.11934 15.4677 7.93506 13.9954 7.93506C12.5231 7.93506 11.3296 9.11934 11.3296 10.5802C11.3296 12.0411 12.5231 13.2254 13.9954 13.2254Z" stroke="#1E1E1E" stroke-width="3" stroke-linecap="round" stroke-linejoin="round"/>
</svg>
