<svg width="73" height="62" viewBox="0 0 73 62" fill="none" xmlns="http://www.w3.org/2000/svg">
<rect x="1.5" y="1.5" width="70" height="59" rx="5.5" fill="#F1D6E0" stroke="#C07EAD" stroke-width="3"/>
<path d="M45 24C48.1826 24 51.2348 25.2643 53.4853 27.5147C55.7357 29.7652 57 32.8174 57 36V50H49V36C49 34.9391 48.5786 33.9217 47.8284 33.1716C47.0783 32.4214 46.0609 32 45 32C43.9391 32 42.9217 32.4214 42.1716 33.1716C41.4214 33.9217 41 34.9391 41 36V50H33V36C33 32.8174 34.2643 29.7652 36.5147 27.5147C38.7652 25.2643 41.8174 24 45 24Z" fill="white"/>
<path d="M25 26H17V50H25V26Z" fill="white"/>
<path d="M21 20C23.2091 20 25 18.2091 25 16C25 13.7909 23.2091 12 21 12C18.7909 12 17 13.7909 17 16C17 18.2091 18.7909 20 21 20Z" fill="white"/>
<path d="M45 24C48.1826 24 51.2348 25.2643 53.4853 27.5147C55.7357 29.7652 57 32.8174 57 36V50H49V36C49 34.9391 48.5786 33.9217 47.8284 33.1716C47.0783 32.4214 46.0609 32 45 32C43.9391 32 42.9217 32.4214 42.1716 33.1716C41.4214 33.9217 41 34.9391 41 36V50H33V36C33 32.8174 34.2643 29.7652 36.5147 27.5147C38.7652 25.2643 41.8174 24 45 24Z" stroke="#1E1E1E" stroke-width="4" stroke-linecap="round" stroke-linejoin="round"/>
<path d="M25 26H17V50H25V26Z" stroke="#1E1E1E" stroke-width="4" stroke-linecap="round" stroke-linejoin="round"/>
<path d="M21 20C23.2091 20 25 18.2091 25 16C25 13.7909 23.2091 12 21 12C18.7909 12 17 13.7909 17 16C17 18.2091 18.7909 20 21 20Z" stroke="#1E1E1E" stroke-width="4" stroke-linecap="round" stroke-linejoin="round"/>
</svg>
