<svg width="293" height="99" viewBox="0 0 293 99" fill="none" xmlns="http://www.w3.org/2000/svg">
<path d="M150.205 13.3413C148.306 12.788 144.171 13.8697 140.97 16.0775C139.933 16.7928 138.276 19.9109 138.395 20.6072C138.514 21.3036 140.876 22.5705 141.763 22.7469C145.481 23.486 151.93 21.9023 152.892 21.2496C154.094 20.4337 153.143 14.1971 150.205 13.3413Z" fill="url(#paint0_linear_11_227)"/>
<path d="M147.218 16.1088C146.246 15.6733 139.544 19.2614 138.291 20.6227C139.739 20.9286 146.178 21.8645 147.498 20.8711C148.638 20.0125 148.432 16.6532 147.218 16.1088Z" fill="url(#paint1_linear_11_227)"/>
<path d="M136.396 34.5277C140.374 33.0972 137.516 30.7401 139.696 26.0555C140.227 24.9134 138.397 21.5536 137.78 21.2102C137.162 20.8668 134.695 21.9132 134.002 22.4941C131.096 24.9285 129.367 29.9123 129.273 31.0709C129.155 32.5191 132.746 35.8407 136.396 34.5277Z" fill="url(#paint2_linear_11_227)"/>
<path d="M135.757 30.9045C136.705 30.4202 138.109 22.9485 137.833 21.1193C136.687 22.0561 131.922 26.4879 131.87 28.1386C131.824 29.5653 134.571 31.51 135.757 30.9045Z" fill="url(#paint3_linear_11_227)"/>
<path d="M126.318 22.9606C127.835 24.2302 129.738 25.0406 133.556 24.3042C134.793 24.0656 137.563 21.8758 137.733 21.1902C137.904 20.5046 136.25 18.3959 135.508 17.878C132.4 15.7078 129.227 13.7311 128.084 13.9426C126.655 14.2069 123.972 20.9972 126.318 22.9606Z" fill="url(#paint4_linear_11_227)"/>
<path d="M127.847 21.7663C128.562 22.5554 136.141 21.9614 137.835 21.2178C136.632 20.3561 131.111 16.9127 129.503 17.2925C128.114 17.6208 126.953 20.78 127.847 21.7663Z" fill="url(#paint5_linear_11_227)"/>
<path d="M135.149 9.52236C133.987 11.1233 133.592 12.9943 134.59 16.7525C134.913 17.9701 137.288 20.5831 137.984 20.7059C138.68 20.8288 140.669 19.0338 141.135 18.2583C143.086 15.0081 143.467 9.48283 143.177 8.35711C142.815 6.94997 136.946 7.0465 135.149 9.52236Z" fill="url(#paint6_linear_11_227)"/>
<path d="M136.729 10.8826C135.991 11.6501 137.105 19.1704 137.963 20.8091C138.74 19.5494 141.795 13.8043 141.306 12.227C140.883 10.8637 137.651 9.92311 136.729 10.8826Z" fill="url(#paint7_linear_11_227)"/>
<path d="M150.733 27.6538C150.226 25.6802 146.527 23.4421 142.891 21.7638C141.713 21.22 138.079 21.3869 137.525 21.858C136.97 22.3291 137.087 25.0867 137.396 25.9654C138.691 29.6485 141.653 32.2997 142.736 32.8097C144.09 33.4472 151.515 30.706 150.733 27.6538Z" fill="url(#paint8_linear_11_227)"/>
<path d="M146.141 27.3172C146.017 26.2275 139.32 22.1699 137.457 21.774C137.945 23.2178 140.494 29.4158 142.067 30.0639C143.426 30.6241 146.296 28.6792 146.141 27.3172Z" fill="url(#paint9_linear_11_227)"/>
<path d="M137.735 22.9769C138.441 23.0373 139.994 21.8765 139.941 21.3349C139.915 21.0766 139.182 19.7104 137.98 19.4445C137.167 19.2644 136.314 20.5567 135.92 20.5852C136.148 21.1186 136.919 22.9072 137.735 22.9769Z" fill="#C07EAD"/>
<path d="M128.248 31.1774C127.092 30.8408 123.895 32.4394 121.948 33.7825C121.317 34.2176 120.309 36.1144 120.382 36.538C120.454 36.9616 121.891 37.7323 122.431 37.8396C124.692 38.2893 127.288 37.7333 127.873 37.3362C128.605 36.8399 130.034 31.6979 128.248 31.1774Z" fill="url(#paint10_linear_11_227)"/>
<path d="M125.749 33.8012C125.158 33.5363 121.08 35.719 120.318 36.5471C121.199 36.7332 125.116 37.3026 125.919 36.6983C126.613 36.176 126.488 34.1324 125.749 33.8012Z" fill="url(#paint11_linear_11_227)"/>
<path d="M117.593 46.7641C119.545 47.6415 121 42.2112 121.173 39.8522C121.229 39.0879 120.383 37.1136 120.007 36.9047C119.632 36.6958 118.131 37.3324 117.709 37.6857C115.941 39.1666 114.808 41.4933 114.751 42.1981C114.679 43.0791 115.44 45.7966 117.593 46.7641Z" fill="url(#paint12_linear_11_227)"/>
<path d="M118.777 42.8022C119.354 42.5075 120.208 37.9623 120.04 36.8496C119.343 37.4194 116.445 40.1154 116.413 41.1196C116.385 41.9875 118.056 43.1705 118.777 42.8022Z" fill="url(#paint13_linear_11_227)"/>
<path d="M112.343 37.9063C113.266 38.6786 115.115 39.2346 117.438 38.7866C118.19 38.6414 119.876 37.3094 119.979 36.8923C120.083 36.4752 119.077 35.1924 118.626 34.8774C116.735 33.5572 114.834 33.3418 114.139 33.4704C113.27 33.6312 110.916 36.7119 112.343 37.9063Z" fill="url(#paint14_linear_11_227)"/>
<path d="M113.965 37.2429C114.4 37.7229 119.011 37.3615 120.041 36.9092C119.309 36.385 115.951 34.2903 114.973 34.5213C114.128 34.721 113.422 36.6428 113.965 37.2429Z" fill="url(#paint15_linear_11_227)"/>
<path d="M118.17 28.7164C117.463 29.6902 117.46 31.9061 118.066 34.1923C118.263 34.933 119.708 36.5226 120.131 36.5973C120.554 36.6721 121.765 35.5801 122.048 35.1083C123.235 33.1312 123.261 30.7636 123.085 30.0788C122.865 29.2228 119.263 27.2103 118.17 28.7164Z" fill="url(#paint16_linear_11_227)"/>
<path d="M119.368 30.6217C118.919 31.0886 119.597 35.6634 120.119 36.6603C120.591 35.894 122.45 32.3991 122.152 31.4396C121.895 30.6103 119.929 30.0381 119.368 30.6217Z" fill="url(#paint17_linear_11_227)"/>
<path d="M128.73 41.4571C128.422 40.2565 125.328 38.2621 123.116 37.2411C122.4 36.9103 120.19 37.0119 119.852 37.2984C119.515 37.585 119.586 39.2625 119.774 39.7971C120.562 42.0376 121.925 44.6479 122.584 44.9581C123.407 45.3459 129.206 43.3139 128.73 41.4571Z" fill="url(#paint18_linear_11_227)"/>
<path d="M125.093 40.6195C125.018 39.9566 120.944 37.4883 119.811 37.2475C120.108 38.1258 121.658 41.8961 122.615 42.2904C123.442 42.6312 125.187 41.4481 125.093 40.6195Z" fill="url(#paint19_linear_11_227)"/>
<path d="M119.98 37.9794C120.41 38.0161 121.355 37.31 121.322 36.9805C121.306 36.8234 120.86 35.9923 120.13 35.8305C119.635 35.721 119.116 36.5071 118.876 36.5244C119.015 36.8489 119.484 37.9369 119.98 37.9794Z" fill="#C07EAD"/>
<path d="M164.249 28.2023C163.094 27.8657 159.897 29.4643 157.95 30.8074C157.319 31.2425 156.311 33.1393 156.384 33.5629C156.456 33.9865 157.893 34.7572 158.432 34.8645C160.694 35.3142 163.29 34.7582 163.875 34.3611C164.607 33.8648 166.036 28.7228 164.249 28.2023Z" fill="url(#paint20_linear_11_227)"/>
<path d="M161.751 30.8261C161.16 30.5612 157.082 32.7439 156.32 33.572C157.201 33.7581 161.118 34.3275 161.921 33.7232C162.615 33.2009 162.489 31.1573 161.751 30.8261Z" fill="url(#paint21_linear_11_227)"/>
<path d="M153.595 43.7891C155.546 44.6664 157.002 39.2361 157.175 36.8771C157.231 36.1128 156.385 34.1385 156.009 33.9296C155.634 33.7207 154.133 34.3573 153.711 34.7106C151.943 36.1915 150.81 38.5182 150.753 39.223C150.681 40.104 151.442 42.8215 153.595 43.7891Z" fill="url(#paint22_linear_11_227)"/>
<path d="M154.779 39.8271C155.356 39.5324 156.21 34.9872 156.042 33.8745C155.345 34.4443 152.447 37.1403 152.415 38.1445C152.387 39.0124 154.058 40.1954 154.779 39.8271Z" fill="url(#paint23_linear_11_227)"/>
<path d="M148.345 34.9312C149.268 35.7036 151.117 36.2595 153.44 35.8115C154.192 35.6664 155.878 34.3343 155.981 33.9172C156.085 33.5001 155.079 32.2173 154.628 31.9023C152.737 30.5821 150.836 30.3667 150.141 30.4953C149.272 30.6561 146.918 33.7368 148.345 34.9312Z" fill="url(#paint24_linear_11_227)"/>
<path d="M149.967 34.2678C150.402 34.7478 155.013 34.3864 156.043 33.9341C155.311 33.4099 151.953 31.3152 150.975 31.5462C150.13 31.7459 149.424 33.6677 149.967 34.2678Z" fill="url(#paint25_linear_11_227)"/>
<path d="M154.172 25.7413C153.465 26.7152 153.462 28.931 154.068 31.2172C154.265 31.9579 155.71 33.5475 156.133 33.6222C156.556 33.697 157.767 32.605 158.05 32.1332C159.237 30.1561 159.263 27.7885 159.087 27.1037C158.866 26.2477 155.265 24.2352 154.172 25.7413Z" fill="url(#paint26_linear_11_227)"/>
<path d="M155.37 27.6466C154.921 28.1136 155.599 32.6883 156.121 33.6852C156.593 32.9189 158.452 29.424 158.154 28.4645C157.897 27.6352 155.931 27.063 155.37 27.6466Z" fill="url(#paint27_linear_11_227)"/>
<path d="M164.732 38.482C164.424 37.2814 161.33 35.287 159.118 34.266C158.402 33.9352 156.192 34.0368 155.854 34.3233C155.517 34.6099 155.588 36.2874 155.776 36.822C156.564 39.0625 157.927 41.6728 158.586 41.983C159.409 42.3708 165.208 40.3388 164.732 38.482Z" fill="url(#paint28_linear_11_227)"/>
<path d="M161.095 37.6444C161.02 36.9815 156.946 34.5132 155.813 34.2724C156.11 35.1507 157.66 38.921 158.617 39.3153C159.444 39.6561 161.189 38.473 161.095 37.6444Z" fill="url(#paint29_linear_11_227)"/>
<path d="M155.982 35.0043C156.411 35.041 157.357 34.3349 157.324 34.0054C157.308 33.8483 156.862 33.0172 156.131 32.8554C155.637 32.7459 155.118 33.532 154.878 33.5493C155.017 33.8738 155.486 34.9618 155.982 35.0043Z" fill="#C07EAD"/>
<path d="M49.9675 56.9096C49.0592 59.3176 42.2197 62.7309 37.4224 64.3353C35.8681 64.8551 31.3296 64.1432 30.6984 63.4751C30.0673 62.8069 30.5944 59.3606 31.1041 58.3C33.2402 53.8548 39.391 46.5552 40.8214 46.0647C42.6094 45.4515 51.3723 53.1855 49.9675 56.9096Z" fill="url(#paint30_linear_11_227)"/>
<path d="M42.2711 57.8122C41.9649 59.1633 32.9959 63.3319 30.6012 63.5713C31.4144 61.826 35.4718 54.3964 37.536 53.8001C39.3201 53.2847 42.6538 56.1235 42.2711 57.8122Z" fill="url(#paint31_linear_11_227)"/>
<path d="M12.3991 52.7416C14.8449 51.9406 21.7908 55.1318 26.0473 57.8651C27.4264 58.7507 29.7155 62.7337 29.5903 63.6443C29.4651 64.5548 26.449 66.3035 25.3031 66.571C20.5003 67.6918 10.9574 67.4725 9.67876 66.6651C8.08046 65.6559 8.61662 53.9805 12.3991 52.7416Z" fill="url(#paint32_linear_11_227)"/>
<path d="M17.9256 58.1739C19.1703 57.5659 28.0392 61.9434 29.7264 63.6597C27.8567 64.1196 19.5242 65.6132 17.766 64.3782C16.2464 63.3108 16.3697 58.9339 17.9256 58.1739Z" fill="url(#paint33_linear_11_227)"/>
<path d="M14.5654 77.4599C14.4301 74.8898 19.3228 69.0169 23.0718 65.6208C24.2864 64.5205 28.7287 63.3496 29.5751 63.708C30.4215 64.0664 31.3229 67.4343 31.2821 68.6103C31.1112 73.5391 28.4101 82.6944 27.2972 83.7182C25.906 84.9979 14.7747 81.4346 14.5654 77.4599Z" fill="url(#paint34_linear_11_227)"/>
<path d="M21.2514 73.542C20.9891 72.1817 27.5286 64.7618 29.6256 63.5808C29.5819 65.5057 28.85 73.9393 27.1991 75.3145C25.7723 76.503 21.5792 75.2423 21.2514 73.542Z" fill="url(#paint35_linear_11_227)"/>
<path d="M42.9608 79.7464C40.3875 79.7045 34.8653 74.4192 31.7352 70.4453C30.7211 69.1579 29.8588 64.6455 30.2746 63.8258C30.6904 63.0061 34.1123 62.3386 35.2827 62.4603C40.1881 62.9699 49.1358 66.2947 50.0805 67.4755C51.2614 68.9515 46.9405 79.8111 42.9608 79.7464Z" fill="url(#paint36_linear_11_227)"/>
<path d="M39.5126 72.8067C38.1375 72.9747 31.1853 65.94 30.1513 63.7668C32.0687 63.9429 40.4319 65.2534 41.6903 66.995C42.7778 68.5002 41.2314 72.5967 39.5126 72.8067Z" fill="url(#paint37_linear_11_227)"/>
<path d="M33.0087 42.8811C34.6663 44.9495 34.103 52.8019 33.008 57.8954C32.6532 59.5456 29.6411 63.1944 28.7178 63.4032C27.7945 63.612 25.0167 61.3367 24.3441 60.3285C21.5252 56.1032 18.283 46.8223 18.5987 45.2972C18.9933 43.3908 30.4452 39.6822 33.0087 42.8811Z" fill="url(#paint38_linear_11_227)"/>
<path d="M29.7704 50.1759C30.8071 51.1561 29.796 61.292 28.7518 63.54C27.6316 61.9037 23.1759 54.4097 23.7303 52.2674C24.2096 50.4159 28.4745 48.9507 29.7704 50.1759Z" fill="url(#paint39_linear_11_227)"/>
<path d="M27.7176 62.3105C28.2062 61.5293 30.6276 60.82 31.1489 61.299C31.3976 61.5275 32.2458 63.3579 31.5839 64.8152C31.1356 65.802 29.1247 65.6799 28.7874 66.0672C28.4109 65.4131 27.1523 63.2143 27.7176 62.3105Z" fill="#C07EAD"/>
<path d="M289.452 66.2831C287.82 68.1207 280.554 68.8295 275.727 68.6224C274.163 68.5553 270.358 66.3705 270.023 65.5591C269.689 64.7476 271.336 61.8537 272.152 61.0818C275.576 57.8464 280.669 55.9872 282.113 56.0381C283.917 56.1017 291.977 63.4411 289.452 66.2831Z" fill="url(#paint40_linear_11_227)"/>
<path d="M282.279 64.4599C281.544 65.5604 272.121 66.2158 269.904 65.6116C271.225 64.3326 277.381 59.0915 279.426 59.2644C281.193 59.414 283.197 63.0843 282.279 64.4599Z" fill="url(#paint41_linear_11_227)"/>
<path d="M254.088 50.9038C256.51 47.2654 264.927 55.0756 267.791 58.967C268.718 60.2278 269.4 64.562 268.977 65.3314C268.555 66.1008 265.267 66.6307 264.154 66.4779C259.488 65.8375 254.999 63.0452 254.135 61.8885C253.054 60.4425 251.416 54.9162 254.088 50.9038Z" fill="url(#paint42_linear_11_227)"/>
<path d="M260.441 56.4692C261.759 56.352 268.175 63.285 269.093 65.3919C267.269 65.1636 259.327 63.6504 258.18 61.9485C257.189 60.4776 258.794 56.6158 260.441 56.4692Z" fill="url(#paint43_linear_11_227)"/>
<path d="M254.633 71.9272C255.39 69.5886 257.984 66.6174 262.488 64.8684C263.947 64.3018 268.309 64.7744 268.942 65.3831C269.574 65.9918 269.228 69.3035 268.79 70.3385C266.955 74.6763 263.901 77.1143 262.559 77.6474C260.881 78.3137 253.462 75.5438 254.633 71.9272Z" fill="url(#paint44_linear_11_227)"/>
<path d="M258.159 71.3118C258.39 70.009 266.757 65.6241 269.03 65.2867C268.334 66.9887 264.801 74.2609 262.859 74.9238C261.181 75.4966 257.871 72.9403 258.159 71.3118Z" fill="url(#paint45_linear_11_227)"/>
<path d="M274.696 81.4886C272.415 80.5725 270.002 76.7433 268.567 72.1301C268.103 70.6355 268.874 66.3163 269.525 65.7272C270.176 65.138 273.456 65.7112 274.458 66.2193C278.66 68.349 281.277 72.4157 281.716 73.7915C282.265 75.5112 278.223 82.9053 274.696 81.4886Z" fill="url(#paint46_linear_11_227)"/>
<path d="M274.698 76.8919C273.414 76.5722 269.616 67.9237 269.436 65.6323C271.086 66.4441 278.097 70.4688 278.625 72.4519C279.081 74.1658 276.303 77.2915 274.698 76.8919Z" fill="url(#paint47_linear_11_227)"/>
<path d="M279.116 47.9795C279.888 50.3904 276.704 57.2018 273.988 61.371C273.108 62.7217 269.176 64.9476 268.281 64.8186C267.386 64.6895 265.686 61.7116 265.43 60.5827C264.358 55.8514 263.879 49.8561 264.682 48.6036C265.684 47.038 277.922 44.251 279.116 47.9795Z" fill="url(#paint48_linear_11_227)"/>
<path d="M273.737 53.3801C274.327 54.6084 269.964 63.3037 268.265 64.9521C267.824 63.1101 266.409 54.9045 267.635 53.1831C268.695 51.6953 272.999 51.8448 273.737 53.3801Z" fill="url(#paint49_linear_11_227)"/>
<path d="M267.762 63.5022C268.465 62.9723 270.867 63.1665 271.168 63.7718C271.312 64.0605 271.444 65.9827 270.356 67.0564C269.619 67.7836 267.867 66.988 267.434 67.2183C267.321 66.5063 266.95 64.1153 267.762 63.5022Z" fill="#C07EAD"/>
<path d="M40.8718 73V71.1631H43.0056C43.587 71.1631 43.9272 71.0023 44.0261 70.6807C44.1375 70.359 44.1931 70.0127 44.1931 69.6416V52.6641C44.1931 52.0827 44.1498 51.6436 44.0632 51.3467C43.989 51.0498 43.6365 50.9014 43.0056 50.9014H41.0203V49.1016H60.8738V55.1504H58.7771V54.2598C58.7771 53.2331 58.7276 52.5094 58.6287 52.0889C58.5297 51.6683 58.3813 51.4147 58.1833 51.3281C57.9854 51.2415 57.738 51.1982 57.4412 51.1982H47.5886V59.7705H53.99C54.1508 59.7705 54.2807 59.7458 54.3796 59.6963C54.491 59.6468 54.5776 59.486 54.6394 59.2139C54.7136 58.9294 54.7693 58.4469 54.8064 57.7666H56.2908V63.7412H54.8064C54.7322 62.7269 54.627 62.1331 54.491 61.96C54.3549 61.7744 54.1508 61.6816 53.8787 61.6816H47.5886V70.9219H57.6082C58.1153 70.9219 58.4431 70.7116 58.5916 70.291C58.7524 69.8581 58.8389 68.9798 58.8513 67.6562C58.8513 67.4831 58.8513 67.3037 58.8513 67.1182C58.8513 66.9326 58.8513 66.7409 58.8513 66.543H60.9294V73H40.8718ZM63.4529 73V71.3115C64.3559 71.3115 64.9991 71.2744 65.3826 71.2002C65.766 71.126 65.9949 71.0146 66.0691 70.8662C66.1557 70.7054 66.199 70.5075 66.199 70.2725V58.8984C66.199 58.4902 66.0011 58.249 65.6052 58.1748C65.2094 58.0882 64.5229 58.0449 63.5457 58.0449V56.3936C63.7931 56.3936 64.0343 56.3997 64.2693 56.4121C64.5167 56.4121 64.8136 56.4121 65.1599 56.4121C65.8155 56.4121 66.4773 56.3997 67.1453 56.375C67.8132 56.3503 68.4812 56.3317 69.1492 56.3193V59.0654C69.9779 58.0882 70.9428 57.3398 72.0437 56.8203C73.157 56.2884 74.3692 56.0225 75.6804 56.0225C76.7813 56.0225 77.7585 56.2884 78.6121 56.8203C79.4779 57.3522 80.1274 58.1315 80.5603 59.1582C81.4633 58.1439 82.4714 57.3708 83.5847 56.8389C84.698 56.307 85.8731 56.041 87.1101 56.041C88.6192 56.041 89.7511 56.3564 90.5056 56.9873C91.2725 57.6182 91.7797 58.5088 92.0271 59.6592C92.2869 60.7972 92.4167 62.1393 92.4167 63.6855V70.4951C92.4167 70.9033 92.6023 71.1383 92.9734 71.2002C93.3445 71.2497 94.0372 71.2868 95.0515 71.3115V73C94.3712 73 93.6847 72.9938 92.9919 72.9814C92.2992 72.9691 91.5076 72.9629 90.6169 72.9629C89.7634 72.9629 89.0274 72.9691 88.4089 72.9814C87.7904 72.9938 87.1596 73 86.5164 73V71.3115C87.5802 71.2868 88.31 71.2311 88.7058 71.1445C89.1016 71.0456 89.2996 70.7549 89.2996 70.2725V63.1104C89.2996 61.4528 89.0955 60.2096 88.6873 59.3809C88.2791 58.5521 87.3761 58.1377 85.9783 58.1377C84.8279 58.1377 83.8507 58.4036 83.0466 58.9355C82.255 59.4674 81.5684 60.123 80.9871 60.9023C80.9623 61.3477 80.9438 61.7992 80.9314 62.2568C80.919 62.7145 80.9128 63.1846 80.9128 63.667V70.4023C80.9128 70.8477 81.086 71.1074 81.4324 71.1816C81.7911 71.2435 82.49 71.2868 83.5291 71.3115V73C82.9106 73 82.2983 73 81.6921 73C81.0984 72.9876 80.3686 72.9753 79.5027 72.9629C78.5997 72.9629 77.8018 72.9691 77.1091 72.9814C76.4164 72.9938 75.7237 73 75.031 73V71.3115C76.0824 71.2868 76.7999 71.2249 77.1833 71.126C77.5792 71.027 77.7771 70.7487 77.7771 70.291V63.1104C77.7771 61.4899 77.5792 60.2406 77.1833 59.3623C76.7875 58.484 75.8845 58.0449 74.4744 58.0449C73.2992 58.0449 72.3344 58.3047 71.5798 58.8242C70.8253 59.3438 70.1016 60.0241 69.4089 60.8652C69.3966 60.8776 69.3842 61.0446 69.3718 61.3662C69.3595 61.6878 69.3471 62.1022 69.3347 62.6094C69.3347 63.0423 69.3285 63.5186 69.3162 64.0381C69.3162 64.5576 69.31 65.0895 69.2976 65.6338C69.2976 66.1781 69.2976 66.71 69.2976 67.2295C69.2976 67.749 69.2976 68.2191 69.2976 68.6396C69.2976 69.5798 69.3223 70.2354 69.3718 70.6064C69.4337 70.9775 69.6563 71.1878 70.0398 71.2373C70.4356 71.2868 71.1283 71.3115 72.1179 71.3115V73C71.4747 73 70.8376 73 70.2068 73C69.5883 72.9876 68.8276 72.9753 67.9246 72.9629C67.0216 72.9629 66.2237 72.9691 65.531 72.9814C64.8383 72.9938 64.1456 73 63.4529 73ZM96.7585 73V71.3115C97.6615 71.3115 98.2986 71.2806 98.6697 71.2188C99.0531 71.1445 99.2882 71.0208 99.3748 70.8477C99.4613 70.6745 99.5046 70.4271 99.5046 70.1055V58.7314C99.5046 58.3851 99.3067 58.1872 98.9109 58.1377C98.5151 58.0882 97.8285 58.0573 96.8513 58.0449C96.8513 57.7604 96.8513 57.4821 96.8513 57.21C96.8513 56.9378 96.8513 56.6657 96.8513 56.3936C97.3585 56.3936 97.8533 56.3936 98.3357 56.3936C98.8181 56.3936 99.2882 56.3874 99.7458 56.375C100.241 56.3626 100.723 56.3503 101.193 56.3379C101.663 56.3255 102.139 56.3132 102.622 56.3008V70.1797C102.622 70.7363 102.832 71.0641 103.253 71.1631C103.686 71.262 104.403 71.3115 105.405 71.3115V73C105.083 73 104.65 73 104.106 73C103.574 72.9876 103.024 72.9814 102.455 72.9814C101.898 72.9814 101.416 72.9814 101.008 72.9814C100.599 72.9691 100.358 72.9629 100.284 72.9629C99.5912 72.9629 98.9727 72.9691 98.4285 72.9814C97.8842 72.9938 97.3276 73 96.7585 73ZM100.915 52.7383C100.371 52.7383 99.9314 52.5775 99.5974 52.2559C99.2758 51.9342 99.115 51.5137 99.115 50.9941C99.115 50.4746 99.2758 50.0602 99.5974 49.751C99.9314 49.4417 100.364 49.2871 100.896 49.2871C101.441 49.2871 101.873 49.4417 102.195 49.751C102.517 50.0602 102.677 50.4808 102.677 51.0127C102.677 51.5199 102.517 51.9342 102.195 52.2559C101.873 52.5775 101.447 52.7383 100.915 52.7383ZM106.852 73C106.852 72.901 106.852 72.7773 106.852 72.6289C106.852 72.4805 106.846 72.3258 106.834 72.165C106.834 71.9919 106.834 71.8311 106.834 71.6826C106.834 71.5342 106.834 71.4105 106.834 71.3115C107.774 71.3115 108.436 71.2559 108.819 71.1445C109.203 71.0332 109.431 70.8662 109.506 70.6436C109.592 70.4209 109.635 70.1426 109.635 69.8086V51.625C109.635 51.1673 109.4 50.9014 108.93 50.8271C108.46 50.7529 107.792 50.7096 106.927 50.6973V49.0273C107.26 49.0273 107.582 49.0273 107.891 49.0273C108.201 49.015 108.51 49.0088 108.819 49.0088C109.141 49.0088 109.456 49.0088 109.765 49.0088C110.235 48.9964 110.712 48.9902 111.194 48.9902C111.689 48.9779 112.202 48.9655 112.734 48.9531V70.0127C112.734 70.6188 112.969 70.9899 113.439 71.126C113.922 71.2497 114.639 71.3115 115.592 71.3115V73C114.911 73 114.231 73 113.551 73C112.883 72.9876 112.091 72.9753 111.176 72.9629C110.273 72.9629 109.493 72.9691 108.838 72.9814C108.182 72.9938 107.52 73 106.852 73ZM122.234 80.4961C121.702 80.4961 121.183 80.4219 120.676 80.2734C120.168 80.125 119.865 80.0384 119.766 80.0137L119.896 78.0469C120.082 78.0716 120.434 78.1211 120.954 78.1953C121.486 78.2819 121.913 78.3252 122.234 78.3252C122.741 78.3252 123.211 78.084 123.644 77.6016C124.09 77.1315 124.584 76.2904 125.129 75.0781L125.834 73.2227C125.834 73.2227 125.685 72.9134 125.388 72.2949C125.104 71.6641 124.727 70.8477 124.257 69.8457C123.799 68.8438 123.304 67.7738 122.772 66.6357C122.24 65.4977 121.727 64.4092 121.232 63.3701C120.75 62.3187 120.342 61.4342 120.008 60.7168C119.674 59.9993 119.476 59.5726 119.414 59.4365C119.142 58.8551 118.894 58.4964 118.672 58.3604C118.449 58.2119 117.979 58.1377 117.261 58.1377H116.612C116.612 58.0387 116.612 57.915 116.612 57.7666C116.612 57.6058 116.606 57.4388 116.594 57.2656C116.594 57.0924 116.594 56.9316 116.594 56.7832C116.594 56.6224 116.594 56.4925 116.594 56.3936C117.286 56.3936 117.979 56.3997 118.672 56.4121C119.364 56.4245 120.014 56.4307 120.62 56.4307C121.201 56.4307 121.857 56.4245 122.587 56.4121C123.329 56.3997 124.164 56.3936 125.092 56.3936V58.082H123.459C123.149 58.082 122.89 58.1377 122.679 58.249C122.469 58.348 122.364 58.5459 122.364 58.8428C122.364 59.3376 122.531 59.9375 122.865 60.6426C123.199 61.3353 123.502 61.9723 123.774 62.5537L127.318 70.124L131.326 60.1973C131.561 59.6406 131.685 59.2201 131.697 58.9355C131.685 58.5768 131.518 58.348 131.196 58.249C130.887 58.1377 130.169 58.082 129.044 58.082V56.3936C129.687 56.3936 130.305 56.3997 130.899 56.4121C131.505 56.4245 132.105 56.4307 132.699 56.4307C133.355 56.4307 134.029 56.4245 134.721 56.4121C135.414 56.3997 136.113 56.3936 136.818 56.3936C136.818 56.4925 136.818 56.6162 136.818 56.7646C136.818 56.9131 136.818 57.0739 136.818 57.2471C136.818 57.4079 136.818 57.5625 136.818 57.7109C136.83 57.8594 136.837 57.9831 136.837 58.082C136.132 58.082 135.612 58.1253 135.278 58.2119C134.956 58.2861 134.709 58.4531 134.536 58.7129C134.375 58.9727 134.171 59.3747 133.924 59.9189L127.522 74.9854C126.928 76.3831 126.372 77.484 125.852 78.2881C125.333 79.0921 124.788 79.6611 124.219 79.9951C123.65 80.3291 122.989 80.4961 122.234 80.4961Z" fill="black"/>
<path d="M153.809 73V71.1631H154.83C155.609 71.1631 156.16 71.1074 156.481 70.9961C156.803 70.8724 156.995 70.7116 157.056 70.5137C157.118 70.3158 157.149 70.1055 157.149 69.8828V51.1797H153.123C152.195 51.1797 151.533 51.2168 151.137 51.291C150.742 51.3652 150.494 51.4766 150.395 51.625C150.309 51.7734 150.265 51.9652 150.265 52.2002C150.265 52.5713 150.265 52.998 150.265 53.4805C150.278 53.9505 150.284 54.4268 150.284 54.9092C150.284 55.3916 150.284 55.8307 150.284 56.2266H148.336V49.0645C148.336 49.0645 148.639 49.0706 149.245 49.083C149.851 49.083 150.587 49.0892 151.453 49.1016C152.319 49.1016 153.154 49.1016 153.958 49.1016C154.762 49.1016 155.362 49.1016 155.758 49.1016H162.92C163.489 49.1016 164.163 49.1016 164.942 49.1016C165.721 49.0892 166.495 49.083 167.261 49.083C168.041 49.0706 168.709 49.0645 169.265 49.0645V56.2266H167.299V52.4043C167.299 52.0579 167.249 51.7982 167.15 51.625C167.064 51.4518 166.81 51.3343 166.389 51.2725C165.969 51.2106 165.264 51.1797 164.274 51.1797H160.526V70.0869C160.526 70.359 160.557 70.5755 160.619 70.7363C160.693 70.8848 160.891 70.9961 161.213 71.0703C161.534 71.1322 162.072 71.1631 162.827 71.1631H163.866V73C163.149 73 162.431 73 161.714 73C161.009 72.9876 160.136 72.9753 159.097 72.9629C159.023 72.9629 158.77 72.9691 158.337 72.9814C157.916 72.9814 157.415 72.9814 156.834 72.9814C156.265 72.9814 155.702 72.9876 155.145 73C154.589 73 154.143 73 153.809 73ZM176.836 73.3896C175.067 73.3896 173.65 72.9134 172.587 71.9609C171.523 71.0085 170.991 69.7962 170.991 68.3242C170.991 66.7409 171.622 65.4668 172.884 64.502C174.145 63.5371 175.908 63.0547 178.172 63.0547C178.939 63.0547 179.718 63.1165 180.51 63.2402C181.314 63.3516 182.124 63.5124 182.94 63.7227V60.9766C182.94 59.8633 182.563 59.0098 181.808 58.416C181.066 57.8099 179.922 57.5068 178.376 57.5068C175.84 57.5068 174.331 58.5335 173.848 60.5869L172.141 60.3828L172.383 57.1172C173.174 56.7585 174.102 56.4678 175.166 56.2451C176.23 56.0101 177.417 55.8926 178.728 55.8926C181.351 55.8926 183.225 56.3688 184.35 57.3213C185.488 58.2738 186.057 59.7705 186.057 61.8115V68.8438C186.057 69.6973 186.101 70.2972 186.187 70.6436C186.274 70.9899 186.441 71.194 186.688 71.2559C186.936 71.3177 187.307 71.3486 187.802 71.3486H188.636V73C188.439 72.9876 188.241 72.9814 188.043 72.9814C187.845 72.9814 187.647 72.9876 187.449 73C187.251 73 187.053 73 186.855 73C186.187 73.0124 185.532 73.0247 184.888 73.0371C184.245 73.0495 183.633 73.0618 183.052 73.0742V70.5322C182.309 71.4723 181.425 72.1836 180.398 72.666C179.384 73.1484 178.196 73.3896 176.836 73.3896ZM177.782 71.6084C178.586 71.6084 179.384 71.4414 180.176 71.1074C180.967 70.7611 181.623 70.2539 182.142 69.5859C182.674 68.918 182.94 68.083 182.94 67.0811V65.2627C182.198 65.0524 181.493 64.8916 180.825 64.7803C180.157 64.6689 179.508 64.6133 178.877 64.6133C177.392 64.6133 176.217 64.9349 175.351 65.5781C174.498 66.209 174.071 67.0934 174.071 68.2314C174.071 69.2458 174.417 70.0622 175.11 70.6807C175.803 71.2992 176.693 71.6084 177.782 71.6084ZM195.019 80.4961C194.487 80.4961 193.968 80.4219 193.461 80.2734C192.954 80.125 192.65 80.0384 192.552 80.0137L192.681 78.0469C192.867 78.0716 193.219 78.1211 193.739 78.1953C194.271 78.2819 194.698 78.3252 195.019 78.3252C195.526 78.3252 195.997 78.084 196.429 77.6016C196.875 77.1315 197.37 76.2904 197.914 75.0781L198.619 73.2227C198.619 73.2227 198.47 72.9134 198.174 72.2949C197.889 71.6641 197.512 70.8477 197.042 69.8457C196.584 68.8438 196.089 67.7738 195.557 66.6357C195.025 65.4977 194.512 64.4092 194.017 63.3701C193.535 62.3187 193.127 61.4342 192.793 60.7168C192.459 59.9993 192.261 59.5726 192.199 59.4365C191.927 58.8551 191.679 58.4964 191.457 58.3604C191.234 58.2119 190.764 58.1377 190.047 58.1377H189.397C189.397 58.0387 189.397 57.915 189.397 57.7666C189.397 57.6058 189.391 57.4388 189.379 57.2656C189.379 57.0924 189.379 56.9316 189.379 56.7832C189.379 56.6224 189.379 56.4925 189.379 56.3936C190.071 56.3936 190.764 56.3997 191.457 56.4121C192.149 56.4245 192.799 56.4307 193.405 56.4307C193.986 56.4307 194.642 56.4245 195.372 56.4121C196.114 56.3997 196.949 56.3936 197.877 56.3936V58.082H196.244C195.935 58.082 195.675 58.1377 195.465 58.249C195.254 58.348 195.149 58.5459 195.149 58.8428C195.149 59.3376 195.316 59.9375 195.65 60.6426C195.984 61.3353 196.287 61.9723 196.559 62.5537L200.103 70.124L204.111 60.1973C204.346 59.6406 204.47 59.2201 204.482 58.9355C204.47 58.5768 204.303 58.348 203.981 58.249C203.672 58.1377 202.955 58.082 201.829 58.082V56.3936C202.472 56.3936 203.091 56.3997 203.684 56.4121C204.29 56.4245 204.89 56.4307 205.484 56.4307C206.14 56.4307 206.814 56.4245 207.507 56.4121C208.199 56.3997 208.898 56.3936 209.603 56.3936C209.603 56.4925 209.603 56.6162 209.603 56.7646C209.603 56.9131 209.603 57.0739 209.603 57.2471C209.603 57.4079 209.603 57.5625 209.603 57.7109C209.616 57.8594 209.622 57.9831 209.622 58.082C208.917 58.082 208.397 58.1253 208.063 58.2119C207.742 58.2861 207.494 58.4531 207.321 58.7129C207.16 58.9727 206.956 59.3747 206.709 59.9189L200.307 74.9854C199.714 76.3831 199.157 77.484 198.637 78.2881C198.118 79.0921 197.574 79.6611 197.005 79.9951C196.436 80.3291 195.774 80.4961 195.019 80.4961ZM210.438 73C210.438 72.901 210.438 72.7773 210.438 72.6289C210.438 72.4805 210.432 72.3258 210.42 72.165C210.42 71.9919 210.42 71.8311 210.42 71.6826C210.42 71.5342 210.42 71.4105 210.42 71.3115C211.36 71.3115 212.022 71.2559 212.405 71.1445C212.788 71.0332 213.017 70.8662 213.092 70.6436C213.178 70.4209 213.221 70.1426 213.221 69.8086V51.625C213.221 51.1673 212.986 50.9014 212.516 50.8271C212.046 50.7529 211.378 50.7096 210.512 50.6973V49.0273C210.846 49.0273 211.168 49.0273 211.477 49.0273C211.787 49.015 212.096 49.0088 212.405 49.0088C212.727 49.0088 213.042 49.0088 213.351 49.0088C213.821 48.9964 214.298 48.9902 214.78 48.9902C215.275 48.9779 215.788 48.9655 216.32 48.9531V70.0127C216.32 70.6188 216.555 70.9899 217.025 71.126C217.508 71.2497 218.225 71.3115 219.177 71.3115V73C218.497 73 217.817 73 217.136 73C216.469 72.9876 215.677 72.9753 214.761 72.9629C213.858 72.9629 213.079 72.9691 212.424 72.9814C211.768 72.9938 211.106 73 210.438 73ZM230.997 73.5195C229.253 73.5195 227.719 73.1546 226.395 72.4248C225.072 71.695 224.033 70.6745 223.278 69.3633C222.536 68.0397 222.165 66.4873 222.165 64.7061C222.165 62.9248 222.536 61.3724 223.278 60.0488C224.033 58.7253 225.072 57.7048 226.395 56.9873C227.731 56.2575 229.265 55.8926 230.997 55.8926C232.741 55.8926 234.275 56.2575 235.598 56.9873C236.934 57.7048 237.98 58.7253 238.734 60.0488C239.489 61.36 239.866 62.9124 239.866 64.7061C239.866 66.4749 239.489 68.0212 238.734 69.3447C237.992 70.6683 236.953 71.695 235.617 72.4248C234.293 73.1546 232.753 73.5195 230.997 73.5195ZM230.997 71.5898C232.704 71.5898 234.071 70.9652 235.097 69.7158C236.124 68.4665 236.637 66.7904 236.637 64.6875C236.637 62.5723 236.124 60.8962 235.097 59.6592C234.083 58.4222 232.716 57.8037 230.997 57.8037C229.277 57.8037 227.911 58.4222 226.896 59.6592C225.882 60.8838 225.375 62.5599 225.375 64.6875C225.375 66.7904 225.882 68.4665 226.896 69.7158C227.911 70.9652 229.277 71.5898 230.997 71.5898ZM242.278 73V71.3115C243.231 71.3115 243.905 71.2806 244.301 71.2188C244.696 71.1569 244.938 71.0394 245.024 70.8662C245.111 70.693 245.154 70.4395 245.154 70.1055V58.8984C245.154 58.4655 244.981 58.2181 244.635 58.1562C244.301 58.082 243.546 58.0449 242.371 58.0449V56.3936C242.556 56.3936 242.853 56.3936 243.261 56.3936C243.682 56.3936 244.072 56.3997 244.43 56.4121C244.789 56.4121 244.969 56.4121 244.969 56.4121C245.476 56.4121 245.995 56.3997 246.527 56.375C247.059 56.3503 247.603 56.3317 248.16 56.3193V59.6963C248.754 58.5459 249.582 57.6429 250.646 56.9873C251.71 56.3317 252.959 56.0039 254.394 56.0039C254.951 56.0039 255.514 56.041 256.083 56.1152V60.1602C255.897 60.1602 255.712 60.1602 255.526 60.1602C255.341 60.1602 255.155 60.1602 254.969 60.1602C254.722 59.5664 254.413 59.0964 254.042 58.75C253.683 58.3913 253.176 58.2119 252.52 58.2119C251.308 58.2119 250.306 58.7809 249.514 59.9189C248.735 61.057 248.333 62.529 248.308 64.335C248.308 64.335 248.308 64.5329 248.308 64.9287C248.308 65.3122 248.308 65.7946 248.308 66.376C248.308 66.945 248.308 67.5264 248.308 68.1201C248.308 68.7015 248.308 69.1963 248.308 69.6045C248.308 70.0127 248.308 70.2354 248.308 70.2725C248.308 70.8044 248.537 71.1136 248.995 71.2002C249.453 71.2744 250.281 71.3115 251.481 71.3115V73C250.702 73 249.941 72.9938 249.199 72.9814C248.457 72.9691 247.554 72.9629 246.49 72.9629C245.575 72.9629 244.808 72.9691 244.189 72.9814C243.583 72.9938 242.946 73 242.278 73Z" fill="black"/>
<defs>
<linearGradient id="paint0_linear_11_227" x1="154.636" y1="18.4138" x2="138.99" y2="16.2083" gradientUnits="userSpaceOnUse">
<stop stop-color="#FEDCDC"/>
<stop offset="1" stop-color="#C07EAD"/>
</linearGradient>
<linearGradient id="paint1_linear_11_227" x1="150.091" y1="19.8303" x2="138.63" y2="18.2148" gradientUnits="userSpaceOnUse">
<stop stop-color="#D07D99"/>
<stop offset="1" stop-color="#C07EAD"/>
</linearGradient>
<linearGradient id="paint2_linear_11_227" x1="129.312" y1="35.2413" x2="140.835" y2="24.43" gradientUnits="userSpaceOnUse">
<stop stop-color="#FEDCDC"/>
<stop offset="1" stop-color="#C07EAD"/>
</linearGradient>
<linearGradient id="paint3_linear_11_227" x1="131.056" y1="30.8116" x2="139.496" y2="22.8926" gradientUnits="userSpaceOnUse">
<stop stop-color="#D07D99"/>
<stop offset="1" stop-color="#C07EAD"/>
</linearGradient>
<linearGradient id="paint4_linear_11_227" x1="121.979" y1="16.676" x2="135.422" y2="24.9799" gradientUnits="userSpaceOnUse">
<stop stop-color="#FEDCDC"/>
<stop offset="1" stop-color="#C07EAD"/>
</linearGradient>
<linearGradient id="paint5_linear_11_227" x1="126.71" y1="17.2042" x2="136.557" y2="23.2866" gradientUnits="userSpaceOnUse">
<stop stop-color="#D07D99"/>
<stop offset="1" stop-color="#C07EAD"/>
</linearGradient>
<linearGradient id="paint6_linear_11_227" x1="141.403" y1="4.67837" x2="134.044" y2="18.661" gradientUnits="userSpaceOnUse">
<stop stop-color="#FEDCDC"/>
<stop offset="1" stop-color="#C07EAD"/>
</linearGradient>
<linearGradient id="paint7_linear_11_227" x1="141.202" y1="9.43476" x2="135.811" y2="19.6766" gradientUnits="userSpaceOnUse">
<stop stop-color="#D07D99"/>
<stop offset="1" stop-color="#C07EAD"/>
</linearGradient>
<linearGradient id="paint8_linear_11_227" x1="147.99" y1="35.1008" x2="141.735" y2="20.077" gradientUnits="userSpaceOnUse">
<stop stop-color="#FEDCDC"/>
<stop offset="1" stop-color="#C07EAD"/>
</linearGradient>
<linearGradient id="paint9_linear_11_227" x1="144.35" y1="31.816" x2="139.769" y2="20.8115" gradientUnits="userSpaceOnUse">
<stop stop-color="#D07D99"/>
<stop offset="1" stop-color="#C07EAD"/>
</linearGradient>
<linearGradient id="paint10_linear_11_227" x1="130.261" y1="35.2037" x2="120.743" y2="33.8621" gradientUnits="userSpaceOnUse">
<stop stop-color="#FEDCDC"/>
<stop offset="1" stop-color="#C07EAD"/>
</linearGradient>
<linearGradient id="paint11_linear_11_227" x1="127.496" y1="36.0651" x2="120.525" y2="35.0824" gradientUnits="userSpaceOnUse">
<stop stop-color="#D07D99"/>
<stop offset="1" stop-color="#C07EAD"/>
</linearGradient>
<linearGradient id="paint12_linear_11_227" x1="114.856" y1="45.4402" x2="121.866" y2="38.8634" gradientUnits="userSpaceOnUse">
<stop stop-color="#FEDCDC"/>
<stop offset="1" stop-color="#C07EAD"/>
</linearGradient>
<linearGradient id="paint13_linear_11_227" x1="115.918" y1="42.7457" x2="121.052" y2="37.9283" gradientUnits="userSpaceOnUse">
<stop stop-color="#D07D99"/>
<stop offset="1" stop-color="#C07EAD"/>
</linearGradient>
<linearGradient id="paint14_linear_11_227" x1="110.396" y1="34.1462" x2="118.573" y2="39.1976" gradientUnits="userSpaceOnUse">
<stop stop-color="#FEDCDC"/>
<stop offset="1" stop-color="#C07EAD"/>
</linearGradient>
<linearGradient id="paint15_linear_11_227" x1="113.274" y1="34.4676" x2="119.264" y2="38.1677" gradientUnits="userSpaceOnUse">
<stop stop-color="#D07D99"/>
<stop offset="1" stop-color="#C07EAD"/>
</linearGradient>
<linearGradient id="paint16_linear_11_227" x1="122.211" y1="26.8474" x2="117.735" y2="35.3533" gradientUnits="userSpaceOnUse">
<stop stop-color="#FEDCDC"/>
<stop offset="1" stop-color="#C07EAD"/>
</linearGradient>
<linearGradient id="paint17_linear_11_227" x1="122.089" y1="29.741" x2="118.81" y2="35.9714" gradientUnits="userSpaceOnUse">
<stop stop-color="#D07D99"/>
<stop offset="1" stop-color="#C07EAD"/>
</linearGradient>
<linearGradient id="paint18_linear_11_227" x1="126.218" y1="45.3544" x2="122.414" y2="36.215" gradientUnits="userSpaceOnUse">
<stop stop-color="#FEDCDC"/>
<stop offset="1" stop-color="#C07EAD"/>
</linearGradient>
<linearGradient id="paint19_linear_11_227" x1="124.004" y1="43.3563" x2="121.217" y2="36.6619" gradientUnits="userSpaceOnUse">
<stop stop-color="#D07D99"/>
<stop offset="1" stop-color="#C07EAD"/>
</linearGradient>
<linearGradient id="paint20_linear_11_227" x1="166.263" y1="32.2286" x2="156.745" y2="30.887" gradientUnits="userSpaceOnUse">
<stop stop-color="#FEDCDC"/>
<stop offset="1" stop-color="#C07EAD"/>
</linearGradient>
<linearGradient id="paint21_linear_11_227" x1="163.498" y1="33.09" x2="156.527" y2="32.1073" gradientUnits="userSpaceOnUse">
<stop stop-color="#D07D99"/>
<stop offset="1" stop-color="#C07EAD"/>
</linearGradient>
<linearGradient id="paint22_linear_11_227" x1="150.858" y1="42.4651" x2="157.868" y2="35.8883" gradientUnits="userSpaceOnUse">
<stop stop-color="#FEDCDC"/>
<stop offset="1" stop-color="#C07EAD"/>
</linearGradient>
<linearGradient id="paint23_linear_11_227" x1="151.92" y1="39.7706" x2="157.054" y2="34.9532" gradientUnits="userSpaceOnUse">
<stop stop-color="#D07D99"/>
<stop offset="1" stop-color="#C07EAD"/>
</linearGradient>
<linearGradient id="paint24_linear_11_227" x1="146.398" y1="31.1711" x2="154.575" y2="36.2225" gradientUnits="userSpaceOnUse">
<stop stop-color="#FEDCDC"/>
<stop offset="1" stop-color="#C07EAD"/>
</linearGradient>
<linearGradient id="paint25_linear_11_227" x1="149.276" y1="31.4925" x2="155.266" y2="35.1926" gradientUnits="userSpaceOnUse">
<stop stop-color="#D07D99"/>
<stop offset="1" stop-color="#C07EAD"/>
</linearGradient>
<linearGradient id="paint26_linear_11_227" x1="158.213" y1="23.8723" x2="153.737" y2="32.3782" gradientUnits="userSpaceOnUse">
<stop stop-color="#FEDCDC"/>
<stop offset="1" stop-color="#C07EAD"/>
</linearGradient>
<linearGradient id="paint27_linear_11_227" x1="158.091" y1="26.7659" x2="154.812" y2="32.9963" gradientUnits="userSpaceOnUse">
<stop stop-color="#D07D99"/>
<stop offset="1" stop-color="#C07EAD"/>
</linearGradient>
<linearGradient id="paint28_linear_11_227" x1="162.22" y1="42.3793" x2="158.416" y2="33.2399" gradientUnits="userSpaceOnUse">
<stop stop-color="#FEDCDC"/>
<stop offset="1" stop-color="#C07EAD"/>
</linearGradient>
<linearGradient id="paint29_linear_11_227" x1="160.006" y1="40.3812" x2="157.219" y2="33.6868" gradientUnits="userSpaceOnUse">
<stop stop-color="#D07D99"/>
<stop offset="1" stop-color="#C07EAD"/>
</linearGradient>
<linearGradient id="paint30_linear_11_227" x1="45.669" y1="48.2947" x2="35.7388" y2="66.2934" gradientUnits="userSpaceOnUse">
<stop stop-color="#FEDCDC"/>
<stop offset="1" stop-color="#C07EAD"/>
</linearGradient>
<linearGradient id="paint31_linear_11_227" x1="40.6447" y1="51.9159" x2="33.3711" y2="65.0995" gradientUnits="userSpaceOnUse">
<stop stop-color="#D07D99"/>
<stop offset="1" stop-color="#C07EAD"/>
</linearGradient>
<linearGradient id="paint32_linear_11_227" x1="8.37902" y1="61.4899" x2="28.6283" y2="57.9501" gradientUnits="userSpaceOnUse">
<stop stop-color="#FEDCDC"/>
<stop offset="1" stop-color="#C07EAD"/>
</linearGradient>
<linearGradient id="paint33_linear_11_227" x1="14.3496" y1="63.1362" x2="29.1817" y2="60.5434" gradientUnits="userSpaceOnUse">
<stop stop-color="#D07D99"/>
<stop offset="1" stop-color="#C07EAD"/>
</linearGradient>
<linearGradient id="paint34_linear_11_227" x1="21.9621" y1="83.6229" x2="23.8272" y2="63.1514" gradientUnits="userSpaceOnUse">
<stop stop-color="#FEDCDC"/>
<stop offset="1" stop-color="#C07EAD"/>
</linearGradient>
<linearGradient id="paint35_linear_11_227" x1="25.109" y1="78.2886" x2="26.4751" y2="63.2937" gradientUnits="userSpaceOnUse">
<stop stop-color="#D07D99"/>
<stop offset="1" stop-color="#C07EAD"/>
</linearGradient>
<linearGradient id="paint36_linear_11_227" x1="49.6183" y1="72.7913" x2="29.3236" y2="69.5218" gradientUnits="userSpaceOnUse">
<stop stop-color="#FEDCDC"/>
<stop offset="1" stop-color="#C07EAD"/>
</linearGradient>
<linearGradient id="paint37_linear_11_227" x1="44.5134" y1="69.2849" x2="29.6482" y2="66.89" gradientUnits="userSpaceOnUse">
<stop stop-color="#D07D99"/>
<stop offset="1" stop-color="#C07EAD"/>
</linearGradient>
<linearGradient id="paint38_linear_11_227" x1="23.1184" y1="42.1709" x2="33.8601" y2="60.4148" gradientUnits="userSpaceOnUse">
<stop stop-color="#FEDCDC"/>
<stop offset="1" stop-color="#C07EAD"/>
</linearGradient>
<linearGradient id="paint39_linear_11_227" x1="23.6914" y1="48.5238" x2="31.5594" y2="61.887" gradientUnits="userSpaceOnUse">
<stop stop-color="#D07D99"/>
<stop offset="1" stop-color="#C07EAD"/>
</linearGradient>
<linearGradient id="paint40_linear_11_227" x1="288.56" y1="57.1313" x2="273.557" y2="69.794" gradientUnits="userSpaceOnUse">
<stop stop-color="#FEDCDC"/>
<stop offset="1" stop-color="#C07EAD"/>
</linearGradient>
<linearGradient id="paint41_linear_11_227" x1="282.842" y1="58.6454" x2="271.852" y2="67.9205" gradientUnits="userSpaceOnUse">
<stop stop-color="#D07D99"/>
<stop offset="1" stop-color="#C07EAD"/>
</linearGradient>
<linearGradient id="paint42_linear_11_227" x1="250.794" y1="56.1668" x2="270.064" y2="59.9242" gradientUnits="userSpaceOnUse">
<stop stop-color="#FEDCDC"/>
<stop offset="1" stop-color="#C07EAD"/>
</linearGradient>
<linearGradient id="paint43_linear_11_227" x1="255.557" y1="59.6742" x2="269.672" y2="62.4264" gradientUnits="userSpaceOnUse">
<stop stop-color="#D07D99"/>
<stop offset="1" stop-color="#C07EAD"/>
</linearGradient>
<linearGradient id="paint44_linear_11_227" x1="255.351" y1="80.5461" x2="264.005" y2="62.9238" gradientUnits="userSpaceOnUse">
<stop stop-color="#FEDCDC"/>
<stop offset="1" stop-color="#C07EAD"/>
</linearGradient>
<linearGradient id="paint45_linear_11_227" x1="259.979" y1="76.8627" x2="266.318" y2="63.9549" gradientUnits="userSpaceOnUse">
<stop stop-color="#D07D99"/>
<stop offset="1" stop-color="#C07EAD"/>
</linearGradient>
<linearGradient id="paint46_linear_11_227" x1="283.717" y1="80.3292" x2="266.732" y2="70.4829" gradientUnits="userSpaceOnUse">
<stop stop-color="#FEDCDC"/>
<stop offset="1" stop-color="#C07EAD"/>
</linearGradient>
<linearGradient id="paint47_linear_11_227" x1="280.361" y1="75.4583" x2="267.92" y2="68.2462" gradientUnits="userSpaceOnUse">
<stop stop-color="#D07D99"/>
<stop offset="1" stop-color="#C07EAD"/>
</linearGradient>
<linearGradient id="paint48_linear_11_227" x1="270.537" y1="43.9688" x2="273.888" y2="63.9091" gradientUnits="userSpaceOnUse">
<stop stop-color="#FEDCDC"/>
<stop offset="1" stop-color="#C07EAD"/>
</linearGradient>
<linearGradient id="paint49_linear_11_227" x1="268.879" y1="49.8307" x2="271.333" y2="64.4365" gradientUnits="userSpaceOnUse">
<stop stop-color="#D07D99"/>
<stop offset="1" stop-color="#C07EAD"/>
</linearGradient>
</defs>
</svg>
